<svg width="224" height="61" viewBox="0 0 224 61" fill="none" xmlns="http://www.w3.org/2000/svg">
<path d="M35.1265 16.9031L35.1265 40.0295C35.1265 42.2387 33.3356 44.0295 31.1265 44.0295L8 44.0295L8 20.9031C8 18.6939 9.79086 16.9031 12 16.9031L35.1265 16.9031Z" fill="url(#paint0_linear_134_131)"/>
<g filter="url(#filter0_di_134_131)">
<path d="M15.8594 33.437C15.8594 32.5779 16.5558 31.8815 17.415 31.8815C18.2741 31.8815 18.9705 32.5779 18.9705 33.437V36.17C18.9705 37.0292 18.2741 37.7256 17.415 37.7256C16.5558 37.7256 15.8594 37.0292 15.8594 36.17V33.437Z" fill="white"/>
<path d="M20.0077 29.4941C20.0077 28.6349 20.7041 27.9385 21.5632 27.9385C22.4223 27.9385 23.1188 28.6349 23.1188 29.4941V35.9234C23.1188 36.7826 22.4223 37.479 21.5632 37.479C20.7041 37.479 20.0077 36.7826 20.0077 35.9234V29.4941Z" fill="white"/>
<path d="M24.1559 24.7624C24.1559 23.9032 24.8524 23.2068 25.7115 23.2068C26.5706 23.2068 27.2671 23.9032 27.2671 24.7624V36.1699C27.2671 37.029 26.5706 37.7255 25.7115 37.7255C24.8524 37.7255 24.1559 37.029 24.1559 36.1699V24.7624Z" fill="white"/>
</g>
<g filter="url(#filter1_di_134_131)">
<path d="M106.308 39.3051H102.024L108.551 20.396H113.703L120.222 39.3051H115.938L111.201 24.717H111.053L106.308 39.3051ZM106.04 31.8725H116.159V34.9933H106.04V31.8725ZM126.357 31.1062V39.3051H122.424V25.1232H126.172V27.6254H126.339C126.653 26.8006 127.179 26.1481 127.917 25.668C128.656 25.1817 129.552 24.9386 130.604 24.9386C131.589 24.9386 132.448 25.154 133.18 25.5849C133.913 26.0158 134.482 26.6313 134.888 27.4315C135.295 28.2255 135.498 29.1734 135.498 30.2752V39.3051H131.564V30.9769C131.571 30.109 131.349 29.4319 130.9 28.9457C130.45 28.4533 129.832 28.207 129.044 28.207C128.515 28.207 128.047 28.3209 127.64 28.5487C127.24 28.7764 126.926 29.1088 126.699 29.5458C126.477 29.9767 126.363 30.4968 126.357 31.1062ZM142.642 39.5728C141.737 39.5728 140.931 39.4158 140.223 39.1019C139.515 38.7819 138.955 38.311 138.542 37.6893C138.136 37.0614 137.933 36.2797 137.933 35.3441C137.933 34.5562 138.078 33.8945 138.367 33.359C138.656 32.8235 139.05 32.3926 139.549 32.0664C140.047 31.7402 140.614 31.494 141.248 31.3278C141.888 31.1616 142.559 31.0446 143.26 30.9769C144.085 30.8908 144.75 30.8107 145.255 30.7369C145.759 30.6569 146.126 30.5399 146.353 30.386C146.581 30.2321 146.695 30.0044 146.695 29.7028V29.6474C146.695 29.0626 146.51 28.6102 146.141 28.2901C145.778 27.9701 145.261 27.81 144.59 27.81C143.882 27.81 143.319 27.967 142.9 28.2809C142.482 28.5887 142.205 28.9765 142.069 29.4443L138.431 29.1488C138.616 28.2871 138.979 27.5423 139.521 26.9144C140.063 26.2804 140.761 25.7942 141.617 25.4556C142.479 25.1109 143.476 24.9386 144.608 24.9386C145.396 24.9386 146.15 25.0309 146.87 25.2156C147.597 25.4002 148.24 25.6864 148.8 26.0742C149.366 26.462 149.813 26.9606 150.139 27.57C150.465 28.1732 150.628 28.8964 150.628 29.7397V39.3051H146.898V37.3384H146.787C146.56 37.7816 146.255 38.1725 145.873 38.511C145.492 38.8434 145.033 39.105 144.498 39.2958C143.962 39.4805 143.343 39.5728 142.642 39.5728ZM143.768 36.8583C144.347 36.8583 144.858 36.7444 145.301 36.5167C145.744 36.2828 146.092 35.9689 146.344 35.5749C146.596 35.181 146.723 34.7347 146.723 34.2362V32.7312C146.6 32.8112 146.43 32.8851 146.215 32.9528C146.006 33.0143 145.769 33.0728 145.504 33.1282C145.239 33.1774 144.975 33.2236 144.71 33.2667C144.445 33.3036 144.205 33.3375 143.99 33.3683C143.528 33.436 143.125 33.5437 142.78 33.6914C142.436 33.8391 142.168 34.0392 141.977 34.2916C141.786 34.5378 141.691 34.8455 141.691 35.2149C141.691 35.7504 141.885 36.1597 142.272 36.4428C142.666 36.7198 143.165 36.8583 143.768 36.8583ZM157.613 20.396V39.3051H153.68V20.396H157.613ZM163.192 44.6232C162.693 44.6232 162.226 44.5832 161.789 44.5032C161.358 44.4293 161.001 44.3339 160.718 44.217L161.604 41.2809C162.066 41.4225 162.481 41.4994 162.85 41.5117C163.226 41.524 163.549 41.4379 163.82 41.2532C164.097 41.0685 164.321 40.7546 164.494 40.3114L164.725 39.7113L159.637 25.1232H163.774L166.71 35.538H166.857L169.821 25.1232H173.985L168.473 40.8377C168.209 41.601 167.848 42.2658 167.393 42.832C166.944 43.4045 166.374 43.8446 165.685 44.1524C164.995 44.4663 164.164 44.6232 163.192 44.6232ZM175.924 39.3051V36.9599L182.867 28.364V28.2624H176.164V25.1232H187.604V27.6808L181.085 36.0643V36.1658H187.844V39.3051H175.924ZM196.908 39.582C195.45 39.582 194.194 39.2866 193.141 38.6957C192.095 38.0986 191.289 37.2553 190.722 36.1658C190.156 35.0702 189.873 33.7745 189.873 32.2788C189.873 30.82 190.156 29.5397 190.722 28.4379C191.289 27.3361 192.086 26.4774 193.114 25.8619C194.148 25.2463 195.36 24.9386 196.751 24.9386C197.687 24.9386 198.558 25.0894 199.364 25.391C200.177 25.6864 200.885 26.1327 201.488 26.7298C202.097 27.3268 202.571 28.0778 202.91 28.9826C203.248 29.8813 203.418 30.9338 203.418 32.1403V33.2205H191.442V30.783H199.715C199.715 30.2167 199.592 29.7151 199.346 29.2781C199.1 28.841 198.758 28.4994 198.321 28.2532C197.89 28.0008 197.389 27.8747 196.816 27.8747C196.219 27.8747 195.69 28.0131 195.228 28.2901C194.773 28.561 194.416 28.9272 194.157 29.3889C193.898 29.8444 193.766 30.3522 193.76 30.9123V33.2298C193.76 33.9315 193.889 34.5378 194.148 35.0487C194.412 35.5596 194.785 35.9535 195.265 36.2305C195.745 36.5075 196.314 36.646 196.973 36.646C197.41 36.646 197.81 36.5844 198.173 36.4613C198.536 36.3382 198.847 36.1535 199.106 35.9073C199.364 35.6611 199.561 35.3595 199.697 35.0025L203.335 35.2426C203.15 36.1166 202.771 36.8799 202.199 37.5323C201.633 38.1786 200.9 38.6834 200.001 39.0465C199.109 39.4035 198.078 39.582 196.908 39.582ZM205.984 39.3051V25.1232H209.798V27.5977H209.945C210.204 26.7175 210.638 26.0527 211.247 25.6033C211.857 25.1479 212.558 24.9201 213.352 24.9201C213.549 24.9201 213.762 24.9324 213.989 24.957C214.217 24.9817 214.417 25.0155 214.59 25.0586V28.5487C214.405 28.4933 214.149 28.444 213.823 28.4009C213.497 28.3578 213.198 28.3363 212.928 28.3363C212.349 28.3363 211.832 28.4625 211.376 28.7149C210.927 28.9611 210.57 29.3058 210.305 29.7489C210.047 30.1921 209.918 30.703 209.918 31.2816V39.3051H205.984Z" fill="white"/>
</g>
<g filter="url(#filter2_di_134_131)">
<path d="M42.543 31.8694L41.6556 28.6949L56.6119 24.5137L57.4994 27.6881L51.9241 29.2468L56.1277 44.2831L52.322 45.3471L48.1183 30.3107L42.543 31.8694ZM68.4133 41.1362C67.0083 41.5289 65.7195 41.5825 64.5467 41.2968C63.3782 41.0035 62.3746 40.4085 61.5359 39.5117C60.6955 38.6089 60.0739 37.4373 59.6712 35.9968C59.2785 34.5919 59.2064 33.2826 59.4552 32.0691C59.7039 30.8555 60.2404 29.8139 61.0646 28.9443C61.8948 28.0731 62.9798 27.4502 64.3195 27.0757C65.2206 26.8238 66.1 26.7345 66.9577 26.8079C67.8198 26.8737 68.6217 27.1129 69.3634 27.5255C70.111 27.9364 70.7696 28.532 71.3393 29.3123C71.9073 30.0867 72.3537 31.0548 72.6785 32.2167L72.9694 33.257L61.4364 36.4812L60.7802 34.1337L68.7474 31.9064C68.5949 31.361 68.3413 30.911 67.9865 30.5564C67.6317 30.2018 67.2108 29.9648 66.7236 29.8453C66.2407 29.7183 65.7236 29.7318 65.1723 29.886C64.5972 30.0467 64.1247 30.3226 63.7547 30.7137C63.3889 31.0971 63.1437 31.546 63.019 32.0602C62.8927 32.5685 62.902 33.0931 63.0469 33.6343L63.6708 35.8661C63.8597 36.5419 64.1475 37.091 64.534 37.5135C64.9265 37.9342 65.3912 38.2134 65.9281 38.3509C66.4651 38.4883 67.0507 38.4684 67.685 38.2911C68.1059 38.1734 68.4746 38.0064 68.7913 37.7901C69.1079 37.5738 69.3575 37.3122 69.5402 37.0055C69.7229 36.6988 69.8314 36.3553 69.8657 35.975L73.4337 35.2267C73.4912 36.1182 73.3322 36.9552 72.9565 37.7377C72.5852 38.5126 72.0156 39.1959 71.2479 39.7877C70.4845 40.3718 69.5396 40.8213 68.4133 41.1362ZM76.1822 23.951L80.0247 28.025L81.2596 22.5316L85.1454 21.4453L83.0976 29.3806L89.0704 35.0736L85.2024 36.1549L81.1881 32.1865L79.8583 37.6489L75.9458 38.7427L78.0914 30.7801L72.2698 25.0448L76.1822 23.951ZM94.6598 18.7854L95.4553 21.6308L87.2302 23.9303L86.4347 21.0848L94.6598 18.7854ZM87.3873 17.2905L91.1752 16.2315L94.735 28.9649C94.8328 29.3146 94.9624 29.5724 95.1238 29.7382C95.2835 29.8981 95.469 29.99 95.6803 30.0141C95.8974 30.0364 96.1335 30.012 96.3884 29.9407C96.5662 29.891 96.7399 29.8265 96.9095 29.7471C97.0774 29.6618 97.2062 29.597 97.2961 29.5527L98.6799 32.2049C98.5068 32.3173 98.2591 32.46 97.9368 32.6332C97.6162 32.8123 97.2123 32.9795 96.7253 33.1349C95.8223 33.4257 94.9881 33.5279 94.2225 33.4415C93.4629 33.3535 92.8114 33.069 92.2679 32.5882C91.7245 32.1074 91.3306 31.4186 91.0862 30.5218L87.3873 17.2905Z" fill="#04364A"/>
</g>
<defs>
<filter id="filter0_di_134_131" x="14.8594" y="22.2068" width="13.4077" height="16.5188" filterUnits="userSpaceOnUse" color-interpolation-filters="sRGB">
<feFlood flood-opacity="0" result="BackgroundImageFix"/>
<feColorMatrix in="SourceAlpha" type="matrix" values="0 0 0 0 0 0 0 0 0 0 0 0 0 0 0 0 0 0 127 0" result="hardAlpha"/>
<feOffset/>
<feGaussianBlur stdDeviation="0.5"/>
<feComposite in2="hardAlpha" operator="out"/>
<feColorMatrix type="matrix" values="0 0 0 0 0 0 0 0 0 0 0 0 0 0 0 0 0 0 0.47 0"/>
<feBlend mode="normal" in2="BackgroundImageFix" result="effect1_dropShadow_134_131"/>
<feBlend mode="normal" in="SourceGraphic" in2="effect1_dropShadow_134_131" result="shape"/>
<feColorMatrix in="SourceAlpha" type="matrix" values="0 0 0 0 0 0 0 0 0 0 0 0 0 0 0 0 0 0 127 0" result="hardAlpha"/>
<feOffset/>
<feGaussianBlur stdDeviation="0.35"/>
<feComposite in2="hardAlpha" operator="arithmetic" k2="-1" k3="1"/>
<feColorMatrix type="matrix" values="0 0 0 0 0.146667 0 0 0 0 0.172857 0 0 0 0 0.183333 0 0 0 0.59 0"/>
<feBlend mode="normal" in2="shape" result="effect2_innerShadow_134_131"/>
</filter>
<filter id="filter1_di_134_131" x="101.024" y="19.396" width="114.566" height="26.2273" filterUnits="userSpaceOnUse" color-interpolation-filters="sRGB">
<feFlood flood-opacity="0" result="BackgroundImageFix"/>
<feColorMatrix in="SourceAlpha" type="matrix" values="0 0 0 0 0 0 0 0 0 0 0 0 0 0 0 0 0 0 127 0" result="hardAlpha"/>
<feOffset/>
<feGaussianBlur stdDeviation="0.5"/>
<feComposite in2="hardAlpha" operator="out"/>
<feColorMatrix type="matrix" values="0 0 0 0 0 0 0 0 0 0 0 0 0 0 0 0 0 0 0.47 0"/>
<feBlend mode="normal" in2="BackgroundImageFix" result="effect1_dropShadow_134_131"/>
<feBlend mode="normal" in="SourceGraphic" in2="effect1_dropShadow_134_131" result="shape"/>
<feColorMatrix in="SourceAlpha" type="matrix" values="0 0 0 0 0 0 0 0 0 0 0 0 0 0 0 0 0 0 127 0" result="hardAlpha"/>
<feOffset/>
<feGaussianBlur stdDeviation="0.35"/>
<feComposite in2="hardAlpha" operator="arithmetic" k2="-1" k3="1"/>
<feColorMatrix type="matrix" values="0 0 0 0 0.146667 0 0 0 0 0.172857 0 0 0 0 0.183333 0 0 0 0.59 0"/>
<feBlend mode="normal" in2="shape" result="effect2_innerShadow_134_131"/>
</filter>
<filter id="filter2_di_134_131" x="40.6555" y="13.1631" width="59.1462" height="35.0094" filterUnits="userSpaceOnUse" color-interpolation-filters="sRGB">
<feFlood flood-opacity="0" result="BackgroundImageFix"/>
<feColorMatrix in="SourceAlpha" type="matrix" values="0 0 0 0 0 0 0 0 0 0 0 0 0 0 0 0 0 0 127 0" result="hardAlpha"/>
<feOffset/>
<feGaussianBlur stdDeviation="0.5"/>
<feComposite in2="hardAlpha" operator="out"/>
<feColorMatrix type="matrix" values="0 0 0 0 0 0 0 0 0 0 0 0 0 0 0 0 0 0 0.47 0"/>
<feBlend mode="normal" in2="BackgroundImageFix" result="effect1_dropShadow_134_131"/>
<feBlend mode="normal" in="SourceGraphic" in2="effect1_dropShadow_134_131" result="shape"/>
<feColorMatrix in="SourceAlpha" type="matrix" values="0 0 0 0 0 0 0 0 0 0 0 0 0 0 0 0 0 0 127 0" result="hardAlpha"/>
<feOffset/>
<feGaussianBlur stdDeviation="0.35"/>
<feComposite in2="hardAlpha" operator="arithmetic" k2="-1" k3="1"/>
<feColorMatrix type="matrix" values="0 0 0 0 0.146667 0 0 0 0 0.172857 0 0 0 0 0.183333 0 0 0 0.59 0"/>
<feBlend mode="normal" in2="shape" result="effect2_innerShadow_134_131"/>
</filter>
<linearGradient id="paint0_linear_134_131" x1="8" y1="16.9031" x2="35.1265" y2="44.0295" gradientUnits="userSpaceOnUse">
<stop stop-color="#005E6E"/>
<stop offset="1" stop-color="#04364A"/>
</linearGradient>
</defs>
</svg>
