<svg width="42" height="40" viewBox="0 0 42 40" fill="none" xmlns="http://www.w3.org/2000/svg">
<g filter="url(#filter0_d_139_64)">
<path d="M40.1755 1.38694e-06L40.1755 31.7294C40.1755 35.3864 37.2109 38.3511 33.5539 38.3511H1.82446L1.82446 6.62167C1.82446 2.96462 4.78909 -1.59855e-07 8.44614 0L40.1755 1.38694e-06Z" fill="url(#paint0_linear_139_64)"/>
<path d="M12.936 23.3754C12.936 22.1608 13.9206 21.1762 15.1352 21.1762C16.3498 21.1762 17.3345 22.1608 17.3345 23.3754V27.2393C17.3345 28.454 16.3498 29.4386 15.1352 29.4386C13.9206 29.4386 12.936 28.454 12.936 27.2393V23.3754Z" fill="white"/>
<path d="M18.8007 17.8009C18.8007 16.5863 19.7854 15.6017 21 15.6017C22.2146 15.6017 23.1992 16.5863 23.1992 17.8009V26.8907C23.1992 28.1053 22.2146 29.09 21 29.09C19.7854 29.09 18.8007 28.1053 18.8007 26.8907V17.8009Z" fill="white"/>
<path d="M24.6655 11.1113C24.6655 9.89669 25.6502 8.91205 26.8648 8.91205C28.0794 8.91205 29.064 9.89669 29.064 11.1113V27.2392C29.064 28.4538 28.0794 29.4384 26.8648 29.4384C25.6502 29.4384 24.6655 28.4538 24.6655 27.2392V11.1113Z" fill="white"/>
</g>
<defs>
<filter id="filter0_d_139_64" x="0.824463" y="-1" width="40.3511" height="40.3511" filterUnits="userSpaceOnUse" color-interpolation-filters="sRGB">
<feFlood flood-opacity="0" result="BackgroundImageFix"/>
<feColorMatrix in="SourceAlpha" type="matrix" values="0 0 0 0 0 0 0 0 0 0 0 0 0 0 0 0 0 0 127 0" result="hardAlpha"/>
<feOffset/>
<feGaussianBlur stdDeviation="0.5"/>
<feComposite in2="hardAlpha" operator="out"/>
<feColorMatrix type="matrix" values="0 0 0 0 0 0 0 0 0 0 0 0 0 0 0 0 0 0 0.47 0"/>
<feBlend mode="normal" in2="BackgroundImageFix" result="effect1_dropShadow_139_64"/>
<feBlend mode="normal" in="SourceGraphic" in2="effect1_dropShadow_139_64" result="shape"/>
</filter>
<linearGradient id="paint0_linear_139_64" x1="21" y1="0" x2="21" y2="38.3511" gradientUnits="userSpaceOnUse">
<stop stop-color="#F18C56"/>
<stop offset="1" stop-color="#A25E3B"/>
</linearGradient>
</defs>
</svg>
