<svg width="140" height="81" viewBox="0 0 140 81" fill="none" xmlns="http://www.w3.org/2000/svg">
<g clip-path="url(#clip0_134_131)">
<g filter="url(#filter0_d_134_131)">
<path d="M89.1755 1.38694e-06L89.1755 31.7294C89.1755 35.3864 86.2109 38.3511 82.5539 38.3511H50.8245L50.8245 6.62167C50.8245 2.96462 53.7891 -1.59855e-07 57.4461 0L89.1755 1.38694e-06Z" fill="url(#paint0_linear_134_131)"/>
<path d="M61.9359 23.3754C61.9359 22.1608 62.9206 21.1762 64.1352 21.1762C65.3498 21.1762 66.3345 22.1608 66.3345 23.3754V27.2393C66.3345 28.454 65.3498 29.4386 64.1352 29.4386C62.9206 29.4386 61.9359 28.454 61.9359 27.2393V23.3754Z" fill="white"/>
<path d="M67.8007 17.8009C67.8007 16.5863 68.7854 15.6017 70 15.6017C71.2146 15.6017 72.1992 16.5863 72.1992 17.8009V26.8907C72.1992 28.1053 71.2146 29.09 70 29.09C68.7854 29.09 67.8007 28.1053 67.8007 26.8907V17.8009Z" fill="white"/>
<path d="M73.6655 11.1113C73.6655 9.89669 74.6502 8.91205 75.8648 8.91205C77.0794 8.91205 78.064 9.89669 78.064 11.1113V27.2392C78.064 28.4538 77.0794 29.4384 75.8648 29.4384C74.6502 29.4384 73.6655 28.4538 73.6655 27.2392V11.1113Z" fill="white"/>
</g>
<g filter="url(#filter1_d_134_131)">
<path d="M55.1641 46.0011V56.3511H52.4641V46.0011H48.8461V43.7871H58.7821V46.0011H55.1641ZM64.859 56.5671C63.299 56.5671 62.117 56.1351 61.313 55.2711C60.509 54.4071 60.107 53.2311 60.107 51.7431C60.107 50.9871 60.209 50.3091 60.413 49.7091C60.629 49.0971 60.929 48.5811 61.313 48.1611C61.709 47.7291 62.183 47.4051 62.735 47.1891C63.299 46.9611 63.929 46.8471 64.625 46.8471C65.321 46.8471 65.945 46.9611 66.497 47.1891C67.049 47.4051 67.517 47.7171 67.901 48.1251C68.285 48.5331 68.579 49.0311 68.783 49.6191C68.999 50.1951 69.107 50.8431 69.107 51.5631V52.3551H62.753V52.5171C62.753 53.1171 62.939 53.6031 63.311 53.9751C63.683 54.3351 64.229 54.5151 64.949 54.5151C65.501 54.5151 65.975 54.4131 66.371 54.2091C66.767 53.9931 67.109 53.7111 67.397 53.3631L68.837 54.9291C68.477 55.3731 67.973 55.7571 67.325 56.0811C66.677 56.4051 65.855 56.5671 64.859 56.5671ZM64.643 48.7551C64.067 48.7551 63.605 48.9351 63.257 49.2951C62.921 49.6431 62.753 50.1171 62.753 50.7171V50.8611H66.497V50.7171C66.497 50.1051 66.329 49.6251 65.993 49.2771C65.669 48.9291 65.219 48.7551 64.643 48.7551ZM70.414 56.3511L73.888 51.6351L70.648 47.0631H73.69L74.68 48.5571L75.436 49.7631H75.58L76.354 48.5571L77.362 47.0631H80.152L76.912 51.4911L80.386 56.3511H77.326L76.156 54.6051L75.346 53.3631H75.202L74.41 54.6051L73.222 56.3511H70.414ZM86.913 56.3511C85.953 56.3511 85.239 56.0991 84.771 55.5951C84.303 55.0911 84.069 54.4491 84.069 53.6691V49.1331H81.549V47.0631H83.187C83.583 47.0631 83.865 46.9851 84.033 46.8291C84.201 46.6731 84.285 46.3851 84.285 45.9651V43.7871H86.733V47.0631H90.351V49.1331H86.733V54.2811H90.351V56.3511H86.913Z" fill="#F18C56"/>
</g>
<g filter="url(#filter2_d_134_131)">
<path d="M34.33 75.3511L33.538 72.3271H30.1L29.326 75.3511H26.59L29.992 62.7871H33.808L37.21 75.3511H34.33ZM31.9 65.3971H31.756L30.532 70.1491H33.124L31.9 65.3971ZM38.463 75.3511V66.0631H41.127V67.7551H41.235C41.343 67.4911 41.475 67.2451 41.631 67.0171C41.787 66.7891 41.973 66.5911 42.189 66.4231C42.417 66.2431 42.675 66.1051 42.963 66.0091C43.263 65.9011 43.599 65.8471 43.971 65.8471C44.415 65.8471 44.823 65.9251 45.195 66.0811C45.567 66.2251 45.885 66.4471 46.149 66.7471C46.413 67.0471 46.617 67.4131 46.761 67.8451C46.917 68.2771 46.995 68.7751 46.995 69.3391V75.3511H44.331V69.6991C44.331 68.4991 43.809 67.8991 42.765 67.8991C42.561 67.8991 42.357 67.9291 42.153 67.9891C41.961 68.0371 41.787 68.1211 41.631 68.2411C41.475 68.3491 41.349 68.4871 41.253 68.6551C41.169 68.8231 41.127 69.0211 41.127 69.2491V75.3511H38.463ZM56.8519 75.3511C56.2999 75.3511 55.8559 75.2131 55.5199 74.9371C55.1839 74.6491 54.9859 74.2411 54.9259 73.7131H54.8359C54.6679 74.3251 54.3319 74.7871 53.8279 75.0991C53.3359 75.4111 52.7299 75.5671 52.0099 75.5671C51.1099 75.5671 50.3839 75.3271 49.8319 74.8471C49.2919 74.3551 49.0219 73.6711 49.0219 72.7951C49.0219 71.8231 49.3759 71.1031 50.0839 70.6351C50.7919 70.1671 51.8299 69.9331 53.1979 69.9331H54.6919V69.4651C54.6919 68.9131 54.5599 68.4991 54.2959 68.2231C54.0439 67.9351 53.6119 67.7911 52.9999 67.7911C52.4359 67.7911 51.9799 67.8991 51.6319 68.1151C51.2839 68.3311 50.9839 68.6131 50.7319 68.9611L49.2739 67.6651C49.5859 67.1371 50.0719 66.7051 50.7319 66.3691C51.4039 66.0211 52.2619 65.8471 53.3059 65.8471C54.5779 65.8471 55.5679 66.1411 56.2759 66.7291C56.9959 67.3051 57.3559 68.1811 57.3559 69.3571V73.4251H58.3819V75.3511H56.8519ZM53.0179 73.8211C53.4859 73.8211 53.8819 73.7071 54.2059 73.4791C54.5299 73.2511 54.6919 72.9211 54.6919 72.4891V71.3731H53.2699C52.1779 71.3731 51.6319 71.7391 51.6319 72.4711V72.8311C51.6319 73.1551 51.7579 73.4011 52.0099 73.5691C52.2619 73.7371 52.5979 73.8211 53.0179 73.8211ZM60.1029 73.2811H62.9469V64.1011H60.1029V62.0311H65.6109V73.2811H68.4549V75.3511H60.1029V73.2811ZM77.4119 66.0631H80.1299L75.7559 76.8451C75.4799 77.5291 75.1139 78.0511 74.6579 78.4111C74.2019 78.7711 73.5779 78.9511 72.7859 78.9511H70.9499V76.8811H73.1819L73.7579 75.2971L70.0139 66.0631H72.8759L74.2259 69.9691L75.0719 72.6691H75.2159L76.0259 69.9691L77.4119 66.0631ZM81.6528 75.3511V73.1371L86.8188 68.1331H81.8328V66.0631H89.8968V68.2771L84.7308 73.2811H90.0768V75.3511H81.6528ZM96.9098 75.5671C95.3498 75.5671 94.1678 75.1351 93.3638 74.2711C92.5598 73.4071 92.1578 72.2311 92.1578 70.7431C92.1578 69.9871 92.2598 69.3091 92.4638 68.7091C92.6798 68.0971 92.9798 67.5811 93.3638 67.1611C93.7598 66.7291 94.2338 66.4051 94.7858 66.1891C95.3498 65.9611 95.9798 65.8471 96.6758 65.8471C97.3718 65.8471 97.9958 65.9611 98.5478 66.1891C99.0998 66.4051 99.5678 66.7171 99.9518 67.1251C100.336 67.5331 100.63 68.0311 100.834 68.6191C101.05 69.1951 101.158 69.8431 101.158 70.5631V71.3551H94.8038V71.5171C94.8038 72.1171 94.9898 72.6031 95.3618 72.9751C95.7338 73.3351 96.2798 73.5151 96.9998 73.5151C97.5518 73.5151 98.0258 73.4131 98.4218 73.2091C98.8178 72.9931 99.1598 72.7111 99.4478 72.3631L100.888 73.9291C100.528 74.3731 100.024 74.7571 99.3758 75.0811C98.7278 75.4051 97.9058 75.5671 96.9098 75.5671ZM96.6938 67.7551C96.1178 67.7551 95.6558 67.9351 95.3078 68.2951C94.9718 68.6431 94.8038 69.1171 94.8038 69.7171V69.8611H98.5478V69.7171C98.5478 69.1051 98.3798 68.6251 98.0438 68.2771C97.7198 67.9291 97.2698 67.7551 96.6938 67.7551ZM103.383 73.2811H105.525V68.1331H103.383V66.0631H108.189V68.6911H108.315C108.399 68.3551 108.513 68.0311 108.657 67.7191C108.813 67.3951 109.005 67.1131 109.233 66.8731C109.473 66.6211 109.761 66.4231 110.097 66.2791C110.433 66.1351 110.829 66.0631 111.285 66.0631H112.167V68.5111H110.187C109.527 68.5111 109.029 68.7091 108.693 69.1051C108.357 69.4891 108.189 69.9631 108.189 70.5271V73.2811H111.249V75.3511H103.383V73.2811Z" fill="white"/>
</g>
</g>
<defs>
<filter id="filter0_d_134_131" x="49.8245" y="-1" width="40.3511" height="40.3511" filterUnits="userSpaceOnUse" color-interpolation-filters="sRGB">
<feFlood flood-opacity="0" result="BackgroundImageFix"/>
<feColorMatrix in="SourceAlpha" type="matrix" values="0 0 0 0 0 0 0 0 0 0 0 0 0 0 0 0 0 0 127 0" result="hardAlpha"/>
<feOffset/>
<feGaussianBlur stdDeviation="0.5"/>
<feComposite in2="hardAlpha" operator="out"/>
<feColorMatrix type="matrix" values="0 0 0 0 0 0 0 0 0 0 0 0 0 0 0 0 0 0 0.47 0"/>
<feBlend mode="normal" in2="BackgroundImageFix" result="effect1_dropShadow_134_131"/>
<feBlend mode="normal" in="SourceGraphic" in2="effect1_dropShadow_134_131" result="shape"/>
</filter>
<filter id="filter1_d_134_131" x="47.8459" y="42.7871" width="43.5051" height="14.7799" filterUnits="userSpaceOnUse" color-interpolation-filters="sRGB">
<feFlood flood-opacity="0" result="BackgroundImageFix"/>
<feColorMatrix in="SourceAlpha" type="matrix" values="0 0 0 0 0 0 0 0 0 0 0 0 0 0 0 0 0 0 127 0" result="hardAlpha"/>
<feOffset/>
<feGaussianBlur stdDeviation="0.5"/>
<feComposite in2="hardAlpha" operator="out"/>
<feColorMatrix type="matrix" values="0 0 0 0 0 0 0 0 0 0 0 0 0 0 0 0 0 0 0.47 0"/>
<feBlend mode="normal" in2="BackgroundImageFix" result="effect1_dropShadow_134_131"/>
<feBlend mode="normal" in="SourceGraphic" in2="effect1_dropShadow_134_131" result="shape"/>
</filter>
<filter id="filter2_d_134_131" x="25.5901" y="61.0311" width="87.5767" height="18.9199" filterUnits="userSpaceOnUse" color-interpolation-filters="sRGB">
<feFlood flood-opacity="0" result="BackgroundImageFix"/>
<feColorMatrix in="SourceAlpha" type="matrix" values="0 0 0 0 0 0 0 0 0 0 0 0 0 0 0 0 0 0 127 0" result="hardAlpha"/>
<feOffset/>
<feGaussianBlur stdDeviation="0.5"/>
<feComposite in2="hardAlpha" operator="out"/>
<feColorMatrix type="matrix" values="0 0 0 0 0 0 0 0 0 0 0 0 0 0 0 0 0 0 0.47 0"/>
<feBlend mode="normal" in2="BackgroundImageFix" result="effect1_dropShadow_134_131"/>
<feBlend mode="normal" in="SourceGraphic" in2="effect1_dropShadow_134_131" result="shape"/>
</filter>
<linearGradient id="paint0_linear_134_131" x1="70" y1="0" x2="70" y2="38.3511" gradientUnits="userSpaceOnUse">
<stop stop-color="#F18C56"/>
<stop offset="1" stop-color="#A25E3B"/>
</linearGradient>
<clipPath id="clip0_134_131">
<rect width="140" height="80.3511" fill="white"/>
</clipPath>
</defs>
</svg>
